<svg xmlns="http://www.w3.org/2000/svg" viewBox="0 0 1000 1000" fill="#FFD700">
    <path d="M464.14 11.04C256.89 25.61 78.06 174.07 25.69 375.38c-20.5 79.04-21 166.98-.99 245.28C37.54 672.29 62 726.88 91.64 771.09c157.84 236.14 478.71 290.24 705.46 118.81 25.94-19.51 73.12-66.69 92.63-92.63 146.48-193.66 130.92-462.41-36.56-636.55C751.66 55.01 610.61.91 464.14 11.04zm71.38 157.1c3.21 3.21 3.95 10.37 3.95 39.03v35.32l12.35 1.73c16.06 2.22 47.18 12.6 64.22 21.49 20.5 10.87 41.99 28.65 41.99 34.58 0 2.96-7.41 19.02-16.55 35.82-19.76 36.8-21.74 38.04-40.76 23.71-18.53-14.08-47.18-27.17-70.15-31.87-52.37-10.62-99.79 15.81-99.79 56.07 0 14.33 4.94 24.45 18.03 36.31 13.83 12.84 30.38 21.24 86.45 44.21 52.12 21.24 74.85 33.59 96.09 52.86 34.33 31.13 46.93 79.04 34.09 129.44-6.92 27.17-18.28 46.68-38.78 67.19-20.01 20.01-47.92 35.82-72.62 41l-14.57 2.96v35.08c0 28.65-.74 35.82-3.95 39.03-4.94 5.19-57.06 5.68-63.48.74-3.46-2.47-4.2-8.65-4.69-38.53l-.74-35.32-22.23-5.68c-29.39-7.41-50.14-16.3-74.1-32.11-24.21-15.56-40.76-30.88-40.76-37.55 0-6.92 41-61.01 47.18-62 2.72-.49 12.35 4.94 24.45 14.08 34.58 25.94 67.19 38.04 102.51 38.04 41.5-.25 68.92-20.25 74.35-54.34 1.23-8.64.25-13.09-5.19-24.45-10.38-21-25.44-30.63-91.89-58.05-65.95-27.17-93.86-44.71-116.59-73.12-22.48-28.16-31.37-65.95-24.21-102.26 5.93-29.89 16.3-49.4 38.53-71.63 20.26-20.25 47.67-36.06 74.35-42.73l13.59-3.21.74-36.8c.49-31.12 1.23-37.3 4.69-40.02 6.43-4.7 58.55-4.21 63.49.98z"/>
</svg>
